<?xml version="1.0" encoding="UTF-8"?>
<!DOCTYPE svg PUBLIC "-//W3C//DTD SVG 1.1//EN" "http://www.w3.org/Graphics/SVG/1.1/DTD/svg11.dtd">
<!-- Creator: CorelDRAW 2021 (64-Bit) -->
<svg xmlns="http://www.w3.org/2000/svg" xml:space="preserve" width="118.576mm" height="118.736mm" version="1.1" style="shape-rendering:geometricPrecision; text-rendering:geometricPrecision; image-rendering:optimizeQuality; fill-rule:evenodd; clip-rule:evenodd"
viewBox="0 0 2062.98 2065.76"
 xmlns:xlink="http://www.w3.org/1999/xlink"
 xmlns:xodm="http://www.corel.com/coreldraw/odm/2003">
 <defs>
  <style type="text/css">
   <![CDATA[
    .fil0 {fill:#A1A1A1}
   ]]>
  </style>
 </defs>
 <g id="Layer_x0020_1">
  <metadata id="CorelCorpID_0Corel-Layer"/>
  <path class="fil0" d="M393.24 1671.15c13.23,-36.37 38.43,-81.53 60.26,-112.85 53.49,-76.74 192.45,-215.53 274,-234.35 40.64,-20.88 136.29,-66.08 192.83,-57.09 19.25,-14.42 81.39,-14.19 105.08,-14.48l135.03 12.28 65 16.76c67.87,9.95 258.91,119.22 266.46,149.51l60.79 60.8c26.52,6.61 110.83,153.74 114.11,180.5 8.1,6.95 5.71,-11.76 9,15.93 -23.63,25.06 -61.18,59.82 -90.19,72.51 -10.05,23.06 1.51,7.14 -16.44,10.1 -10.28,19.76 -43.53,37.8 -65,46.4 -6.96,12.39 -68.81,41.3 -89.99,51.06 -36.6,16.86 -73.36,25.69 -106.45,41.69l-73.65 19.4c-39.51,9.09 -104.09,26.37 -144.82,15.22l-39.31 7.54 -110.48 -4.35 -85.93 -14.38c-36.27,-3.75 -83.24,-20.42 -116.61,-30.37 -33.46,-11.79 -140.41,-46.59 -156.77,-77.11 -54.66,-5.57 -155.12,-108.99 -193.7,-138.1l6.77 -16.62zm270.05 -891.35l3.42 -35.43c0.34,-1.37 1.68,-2.29 1.96,-5.07 0.28,-2.76 1.27,-3.38 2.15,-4.95 -4.99,-22.82 1.66,-52.61 11.76,-71.19 22.34,-102.5 133.92,-217.67 238.45,-238.45 28.57,-12.75 74.64,-18.36 110.51,-19.3 20.3,-0.21 47.43,0.63 66.41,7.29 12.13,4.26 7.32,2.15 14.12,7.18 55.66,-5.54 157.05,68.93 180.69,92.56 23.72,23.73 98.02,125.92 92.56,180.69 8.11,8.25 4.29,-11.5 9.03,19.15 3.49,41.26 10.84,112.94 -7.4,147.33 -2.62,21.73 -4.17,27.73 -12.4,47.96 -8.59,21.11 -4.55,19.01 -19.92,32.53 -7.33,43.31 -61.07,93.84 -93.04,119.02 -7.92,6.24 -11.09,11.05 -20.07,16.43 -20.01,12 -4.3,5.11 -22.53,7.64 -14.58,21.39 -48.11,33.16 -76.98,40.98 -52.33,17.66 -112.96,21.7 -171.88,11.86 -43.81,-7.31 -115.87,-27.37 -135.04,-56.06 -25.92,-10.15 -29.23,-12.91 -41.8,-33.44 -14.63,-2.5 -12.82,-0.03 -26.33,-14.45 -11.57,-12.35 -10.24,-12.3 -13.78,-26.67 -2.65,-3.62 -10.99,0.37 -28.85,-28.79 -7.51,-12.26 -12.17,-22.71 -18.22,-37.23 -24.38,-19.79 -39.79,-119.07 -42.84,-159.61zm-560.72 -207.94l-39.91 103.6c-7.68,28.46 -19.09,56.7 -26.24,84.9 -7.19,28.38 -12.7,61.78 -22.06,84.44l-14.25 143.68c-1.01,22.73 5.05,187.76 5.05,187.78 0.54,1.87 6.48,6.31 9.33,27.04 7.67,71.84 35.55,126.19 48.16,188.39 9.86,13.76 36.18,79.17 42.23,100.05 12.82,10.41 97.13,217.58 326.02,379.53l140.35 86.84c19.84,5.5 86.52,32.54 100.05,42.23 63.76,12.93 120.39,41.28 194.53,49.26 26.63,3.75 90.45,2.4 105.92,16.17l72.07 -3.21 30.69 0.32 138.68 -11.19 24.6 -9.85 60.06 -13.93c25.84,-6.48 55.23,-19.41 80.75,-22.67 32.67,-16.76 66.03,-27.3 102.53,-45.21 23.46,-11.51 81.04,-45.24 98.13,-47.69l182.33 -150.83 150.85 -182.35c2.41,-16.86 34.53,-71.87 45.68,-94.03 16.59,-32.97 27.03,-62.51 42.49,-97.7l48.79 -169.52c0.36,-2.68 1.47,-3.29 2.4,-4.83l11.19 -138.68 -0.32 -42.96c0.46,-68.84 -5.39,-133.57 -18.24,-197.13 -7.31,-36.18 -41.63,-146.53 -40.94,-164.25 -6.08,-7.2 -0.16,2.06 -8.71,-12.06l-15.03 -34.91c-8.55,-20.42 -14.83,-28.74 -21.55,-51.94 -7.76,-6.3 -33.33,-59.24 -42.57,-73.87l-98.06 -135.34c-54.83,-61.03 -55.23,-64.12 -119.75,-119.41 -11.93,-10.23 -18.33,-14.4 -34.04,-27.41l-171.94 -110.33 -98.91 -45.29c-29.5,1.15 -66.52,-17.36 -94.7,-25.17 -33.71,-9.35 -68.47,-17.54 -100.96,-21.04l-20.9 -8.23 -193.92 -5.05 -137.54 14.25c-22.57,9.32 -56.09,15.08 -84.44,22.09 -23.92,5.92 -52.12,18.26 -75.97,21.31l-112.53 44.81c-15.92,18.19 -43.1,26.64 -74.12,45.61 -292.82,179.07 -358.9,391.93 -395.28,423.79z"/>
 </g>
</svg>
