<?xml version="1.0" encoding="UTF-8"?>
<!DOCTYPE svg PUBLIC "-//W3C//DTD SVG 1.1//EN" "http://www.w3.org/Graphics/SVG/1.1/DTD/svg11.dtd">
<!-- Creator: CorelDRAW 2021 (64-Bit) -->
<svg xmlns="http://www.w3.org/2000/svg" xml:space="preserve" width="27.135mm" height="27.135mm" version="1.1" style="shape-rendering:geometricPrecision; text-rendering:geometricPrecision; image-rendering:optimizeQuality; fill-rule:evenodd; clip-rule:evenodd"
viewBox="0 0 69.69 69.69"
 xmlns:xlink="http://www.w3.org/1999/xlink"
 xmlns:xodm="http://www.corel.com/coreldraw/odm/2003">
 <defs>
  <style type="text/css">
   <![CDATA[
    .fil0 {fill:black;fill-rule:nonzero}
   ]]>
  </style>
 </defs>
 <g id="Layer_x0020_1">
  <metadata id="CorelCorpID_0Corel-Layer"/>
  <path class="fil0" d="M62.23 0l-54.76 0c-4.12,0 -7.47,3.34 -7.47,7.47l0 54.76c0,4.12 3.34,7.47 7.47,7.47l21.35 0 0 -23.69 -9.8 0 0 -11.15 9.8 0 0 -8.5c0,-9.67 5.76,-15.01 14.57,-15.01 4.22,0 8.64,0.75 8.64,0.75l0 9.49 -4.86 0c-4.79,0 -6.29,2.97 -6.29,6.03l0 7.24 10.7 0 -1.71 11.15 -8.99 0 0 23.69 21.35 0c4.12,0 7.47,-3.34 7.47,-7.47l0 -54.76c0,-4.12 -3.34,-7.47 -7.47,-7.47z"/>
 </g>
</svg>
