<?xml version="1.0" encoding="UTF-8"?>
<!DOCTYPE svg PUBLIC "-//W3C//DTD SVG 1.1//EN" "http://www.w3.org/Graphics/SVG/1.1/DTD/svg11.dtd">
<!-- Creator: CorelDRAW 2021 (64-Bit) -->
<svg xmlns="http://www.w3.org/2000/svg" xml:space="preserve" width="27.135mm" height="27.135mm" version="1.1" style="shape-rendering:geometricPrecision; text-rendering:geometricPrecision; image-rendering:optimizeQuality; fill-rule:evenodd; clip-rule:evenodd"
viewBox="0 0 65.74 65.74"
 xmlns:xlink="http://www.w3.org/1999/xlink"
 xmlns:xodm="http://www.corel.com/coreldraw/odm/2003">
 <defs>
  <style type="text/css">
   <![CDATA[
    .fil0 {fill:black}
   ]]>
  </style>
 </defs>
 <g id="Layer_x0020_1">
  <metadata id="CorelCorpID_0Corel-Layer"/>
  <path class="fil0" d="M6.89 0l51.97 0c3.79,0 6.89,3.1 6.89,6.89l0 51.97c0,3.79 -3.1,6.89 -6.89,6.89l-51.97 0c-3.79,0 -6.89,-3.1 -6.89,-6.89l0 -51.97c0,-3.79 3.1,-6.89 6.89,-6.89zm25.98 23.97c4.91,0 8.9,3.98 8.9,8.9 0,4.91 -3.98,8.9 -8.9,8.9 -4.91,0 -8.9,-3.98 -8.9,-8.9 0,-4.91 3.98,-8.9 8.9,-8.9zm-9.94 -9.32l19.88 0c4.55,0 8.28,3.72 8.28,8.28l0 19.88c0,4.55 -3.72,8.28 -8.28,8.28l-19.88 0c-4.55,0 -8.28,-3.72 -8.28,-8.28l0 -19.88c0,-4.55 3.72,-8.28 8.28,-8.28zm24.4 -5.01l-28.91 0c-4.83,0 -8.77,3.95 -8.77,8.77l0 28.91c0,4.83 3.95,8.77 8.77,8.77l28.91 0c4.83,0 8.77,-3.95 8.77,-8.77l0 -28.91c0,-4.83 -3.95,-8.77 -8.77,-8.77zm-3.79 7.52c1.38,0 2.5,1.12 2.5,2.5 0,1.38 -1.12,2.5 -2.5,2.5 -1.38,0 -2.5,-1.12 -2.5,-2.5 0,-1.38 1.12,-2.5 2.5,-2.5zm-10.67 2.54c-7.27,0 -13.16,5.89 -13.16,13.16 0,7.27 5.89,13.16 13.16,13.16 7.27,0 13.16,-5.89 13.16,-13.16 0,-7.27 -5.89,-13.16 -13.16,-13.16z"/>
 </g>
</svg>
