<?xml version="1.0" encoding="UTF-8"?>
<!DOCTYPE svg PUBLIC "-//W3C//DTD SVG 1.1//EN" "http://www.w3.org/Graphics/SVG/1.1/DTD/svg11.dtd">
<!-- Creator: CorelDRAW 2021 (64-Bit) -->
<svg xmlns="http://www.w3.org/2000/svg" xml:space="preserve" width="50.0016mm" height="46.5617mm" version="1.1" style="shape-rendering:geometricPrecision; text-rendering:geometricPrecision; image-rendering:optimizeQuality; fill-rule:evenodd; clip-rule:evenodd"
viewBox="0 0 407.27 379.25"
 xmlns:xlink="http://www.w3.org/1999/xlink"
 xmlns:xodm="http://www.corel.com/coreldraw/odm/2003">
 <defs>
  <style type="text/css">
   <![CDATA[
    .fil1 {fill:black}
    .fil0 {fill:black;fill-rule:nonzero}
   ]]>
  </style>
 </defs>
 <g id="Layer_x0020_1">
  <metadata id="CorelCorpID_0Corel-Layer"/>
  <g id="_1655291152368">
   <path class="fil0" d="M130.54 82.69c36.04,0 68.67,14.62 92.29,38.23 23.62,23.62 38.23,56.25 38.23,92.29 0,34.48 -13.38,65.85 -35.23,89.19 -0.16,-0.49 -0.31,-0.98 -0.38,-1.41 -0.14,-0.72 -0.4,-1.31 -0.85,-1.89 -0.55,-0.86 -1.02,-2.11 -1.5,-3.04 -0.65,-1.26 -1.44,-2.44 -2.15,-3.68 -0.12,-0.21 -0.25,-0.38 -0.39,-0.58l-3.62 -4.5c-0.02,-0.02 -0.04,-0.05 -0.06,-0.07 -0.26,-0.4 -0.55,-0.71 -0.91,-1.03 16.79,-19.63 26.92,-45.12 26.92,-72.98 0,-31.02 -12.58,-59.11 -32.91,-79.45 -20.33,-20.33 -48.42,-32.91 -79.45,-32.91 -31.02,0 -59.12,12.58 -79.45,32.91 -20.33,20.33 -32.91,48.42 -32.91,79.45 0,27.86 10.14,53.36 26.94,72.99 -0.25,0.22 -0.48,0.45 -0.71,0.71 -0.01,0.01 -0.02,0.04 -0.05,0.05 -0.77,0.47 -1.35,1.13 -1.71,1.98 -0.37,0.61 -0.92,1.3 -1.34,1.87 -0.72,0.98 -1.4,1.93 -2.02,2.97 -1.07,1.78 -1.91,3.77 -2.95,5.58 -0.28,0.42 -0.47,0.86 -0.6,1.37 -0.1,0.4 -0.28,1.12 -0.49,1.68 -21.87,-23.34 -35.26,-54.71 -35.26,-89.21 0,-36.04 14.62,-68.67 38.23,-92.29 23.62,-23.62 56.25,-38.23 92.29,-38.23l0.03 0.01z"/>
   <g>
    <path class="fil1" d="M179.51 293.73l-7.01 3.18c-0.6,0.47 -1.29,0.72 -1.9,1.1 -0.83,0.52 -0.97,0.61 -1.87,1.04 -1.29,0.63 -2.41,1.39 -3.66,2.1 -2.8,1.74 -5.25,3.34 -7.66,5.18 -1.19,0.92 -2.44,1.84 -3.6,2.79 -1.28,1.04 -2.44,1.99 -3.44,2.92l-0.45 0.6c-2.06,3.09 -1.44,4.79 -1.04,8.57 1.09,-0.25 5.45,-3.78 6.39,-4.49 6.36,-4.77 15.97,-9.06 24.08,-9.06 -0.7,0.6 -7.84,3.18 -9.53,4.01 -3.21,1.57 -5.9,3.13 -8.73,4.98 -2.76,1.82 -9.83,6.44 -11.55,8.77 -0.9,1.23 -1.31,4.09 -0.15,5.3 1.08,0.32 7.94,-0.42 10.04,-0.34 4.14,0.14 22.04,0.97 25.45,1.47 0.92,0.14 3.75,0.48 4.42,1.02 -1.95,1.39 -27.56,1.23 -30.21,1.09 -1.93,-0.11 -8.55,-0.98 -9.78,-0.44 -0.43,0.45 -0.28,0.18 -0.5,0.99 -1.02,3.74 0.75,4.87 4.21,7.47 1.31,0.98 2.38,1.91 3.69,2.91 7.46,5.63 8.46,6.05 16.76,10.15 1.39,0.69 3.44,1.51 4.55,2.23 -6.92,-0.01 -16.2,-4.41 -21.38,-8.64l-4.55 -3.77c-0.68,-0.59 -2.37,-2.14 -3.19,-2.37 -1.04,2.86 -1.2,5.39 0.2,8.06 1.58,3.04 15.34,12.76 15.72,13.41 0.85,0.33 6.8,4.05 7.39,4.57 0.27,0.1 7.45,3.96 7.55,4.05 1.24,0.27 2.43,0.93 3.67,1.41 1.12,0.44 2.61,0.85 3.45,1.56 1.04,-0.06 5.61,1.6 7.26,1.96 2.59,0.56 5.36,1.1 8.12,1.39 0.25,0.01 0.47,0 0.72,0.07 0.9,0.26 0.11,-0.01 0.53,0.26 4.27,-1.08 2.88,1.29 6.47,-2.9l4.2 -5.09c0.52,-0.7 2.12,-3.35 2.52,-3.61 0.43,-1.31 1.18,-2.38 1.84,-3.78 0.59,-1.26 1.1,-2.87 1.91,-3.83 0.04,-0.77 0.77,-2.58 1.1,-3.4l2.32 -7.87c-0.1,-0.93 1.09,-7.76 1.3,-9.53 0.39,-3.35 0.64,-7.06 0.63,-10.5 -0.02,-7.31 -0.58,-13.4 -2.41,-19.97 -0.43,-1.24 -2,-5.55 -2.26,-6.96 -0.53,-0.63 -1.48,-2.85 -1.94,-3.73 -0.61,-1.18 -1.36,-2.31 -2.05,-3.52l-3.62 -4.5c-0.55,-0.64 -0.05,-0.23 -0.7,-0.79 -2.38,-2.04 -10.84,-1.08 -13.79,-0.74 -7.25,0.85 -13.34,2.8 -19.54,5.23l-0 -0.04z"/>
    <path class="fil1" d="M47.68 289.8c-0.4,0.7 -0.11,0.48 -1.01,0.86 -0.17,0.5 -1.41,2.15 -1.84,2.72 -0.72,0.97 -1.18,1.62 -1.79,2.63 -0.44,0.74 -2.92,5.62 -3.04,5.76 -0.29,1.18 -0.85,3.1 -1.56,3.94 0.04,0.99 -1.6,5.96 -1.88,7.8l-0.81 3.94c0.17,0.92 0,1.47 -0.07,2.42l-0.25 3.67 -0.11 3.67 0.02 3.67c0.05,1.07 0.2,1.39 -0.09,2.42 0.04,0.06 0.06,0.09 0.07,0.17l0.29 2.29c0.06,0.93 0.11,1.74 0.15,2.69 0.27,0.9 0.43,2.25 0.21,3.15 0.04,0.06 0.07,0.09 0.09,0.18 0.01,0.1 0.06,0.14 0.09,0.18l1.37 7.25c0.59,2.47 1.31,4.85 2,7.34 0.45,1.15 2.8,6.76 2.81,7.31 0.87,0.76 1.48,2.39 2.09,3.41 0.66,1.14 1.72,2.61 2.16,3.72 0.44,0.12 4.65,5.58 5.36,6.37 2.33,2.58 6.02,1.64 9.94,1.06 2.92,-0.75 6.27,-1.22 9.46,-2.26 3.07,-1.01 5.89,-2.09 8.75,-3.25l3.85 -1.75 0.59 -0.38c0.27,-0.15 0.53,-0.26 0.81,-0.42l4.18 -2.41c1.04,-0.61 1.74,-0.99 2.75,-1.66 0.69,-0.45 2.04,-1.4 2.79,-1.67l14.86 -11.78c1.17,-1.28 2.15,-1.68 2.83,-4.27 0.53,-2 0.11,-4.49 -0.6,-6.16 -0.61,0.17 -0.1,-0.04 -0.76,0.39l-2.31 1.87c-3.13,2.6 -5.85,5.17 -9.47,7.15 -4.01,2.21 -10.9,5.35 -16.59,5.36 4.15,-2.69 8.3,-2.92 19.24,-10.79l5.78 -4.5c3.55,-2.72 5.07,-3.62 4.26,-7.28 -0.47,-2.11 -1.66,-1.47 -6.26,-1.02l-3.67 0.25c-5.23,0.22 -10.37,0.21 -15.67,0.14 -2.56,-0.04 -5.17,-0.15 -7.73,-0.34 -1.09,-0.09 -6.36,-0.26 -7.2,-0.86l4.41 -1.02c1.66,-0.26 3.21,-0.29 4.88,-0.38l20.57 -1.09c2.28,-0.1 8.79,0.71 10.04,0.34 1.08,-1.12 0.81,-3.82 -0.04,-5.15 -2.53,-3.93 -18.73,-13.58 -25.03,-15.84l-4.71 -1.95c-0.04,-0.02 -0.11,-0.07 -0.16,-0.11 10.65,0 19.16,5.47 27.05,11.23 1.04,0.76 2.26,2.06 3.41,2.32 0.27,-2.6 1.01,-3.88 -0.18,-7.02 -0.39,-1.06 -0.75,-1.1 -1.04,-1.88 -0.49,-0.4 -0.63,-0.66 -1.17,-1.06 -0.7,-0.5 -0.59,-0.43 -1.36,-1.08 -0.85,-0.72 -1.91,-1.45 -2.64,-2.27 -2.61,-1.25 -9.27,-7.99 -25.3,-14.6 -7.54,-3.1 -16.2,-5.09 -24.63,-5.24 -3.51,-0.06 -6.42,-0.28 -8.23,1.75l0.05 0.06z"/>
    <path class="fil1" d="M116.89 319.88l-0.76 3.03c-0.02,0.05 -0.06,0.12 -0.1,0.17 0.23,1.28 -0.47,7.55 -0.47,9.77 0,2.22 0.69,8.49 0.47,9.77 0.17,0.27 0.06,-0.02 0.26,0.55 0.07,0.22 0.12,0.38 0.17,0.6 0.09,0.37 0.16,0.91 0.23,1.31 0.72,2.71 0.85,3.94 2.52,5.88 3.89,0.14 8.19,0.12 12.08,0.06 1.98,-0.04 3.91,0.01 5.88,0.01 0.98,0 1.96,-0.02 2.95,-0.02 2.54,-0.01 1.57,-0.38 2.44,-0.53 0.38,-0.79 0.17,-0.69 0.81,-1.25l0.43 -1.66c1.42,-4.21 1.82,-10.14 1.8,-14.46 -0.02,-4.37 -0.33,-10.53 -1.73,-14.78 -0.18,-0.58 -0.48,-1.12 -0.61,-1.79l-0.69 -1.12c-1.75,-1.13 -4.88,-0.64 -7.09,-0.63l-15.61 0.04c-1.82,0.36 -2.29,2.99 -2.95,5.03l-0.02 0z"/>
   </g>
   <g>
    <path class="fil1" d="M374.92 91.13l-4.72 0.22c-0.45,0.14 -0.9,0.12 -1.34,0.2 -0.6,0.1 -0.7,0.12 -1.3,0.17 -0.88,0.06 -1.69,0.25 -2.56,0.37 -1.99,0.36 -3.75,0.7 -5.55,1.22 -0.9,0.26 -1.82,0.49 -2.69,0.77 -0.97,0.31 -1.84,0.58 -2.63,0.88l-0.39 0.23c-1.89,1.3 -1.91,2.41 -2.55,4.65 0.69,0.11 3.98,-0.92 4.68,-1.1 4.71,-1.28 11.18,-1.53 15.81,0.32 -0.54,0.18 -5.2,0.02 -6.36,0.11 -2.2,0.16 -4.09,0.44 -6.11,0.86 -1.99,0.4 -7.08,1.44 -8.59,2.38 -0.8,0.49 -1.68,2.04 -1.29,2.99 0.54,0.43 4.63,1.57 5.8,2.09 2.33,1.02 12.36,5.57 14.19,6.64 0.49,0.29 2.02,1.13 2.28,1.58 -1.44,0.36 -16.01,-5.58 -17.49,-6.26 -1.08,-0.5 -4.66,-2.5 -5.47,-2.48 -0.34,0.16 -0.21,0.04 -0.52,0.45 -1.44,1.9 -0.69,2.95 0.7,5.23 0.53,0.86 0.92,1.63 1.45,2.5 2.98,4.91 3.45,5.39 7.25,9.61 0.64,0.7 1.62,1.64 2.09,2.31 -3.95,-1.58 -8.25,-6.21 -10.23,-9.81l-1.74 -3.19c-0.26,-0.49 -0.86,-1.75 -1.28,-2.09 -1.24,1.4 -1.91,2.8 -1.73,4.65 0.21,2.1 5.84,10.79 5.91,11.24 0.4,0.38 2.96,3.87 3.18,4.29 0.14,0.11 3.35,3.96 3.39,4.03 0.65,0.44 1.18,1.08 1.77,1.64 0.54,0.5 1.3,1.08 1.62,1.68 0.61,0.21 2.83,2.2 3.69,2.77 1.35,0.91 2.81,1.85 4.32,2.64 0.14,0.06 0.27,0.11 0.39,0.21 0.45,0.36 0.07,0.02 0.25,0.27 2.69,0.36 1.35,1.39 4.36,-0.17l3.56 -1.95c0.45,-0.28 1.98,-1.44 2.26,-1.48 0.54,-0.65 1.22,-1.09 1.91,-1.74 0.63,-0.59 1.29,-1.39 1.96,-1.75 0.2,-0.43 1.03,-1.3 1.4,-1.69l3.12 -3.95c0.16,-0.55 2.39,-4.18 2.91,-5.15 0.98,-1.82 1.98,-3.88 2.75,-5.85 1.66,-4.17 2.72,-7.78 3.18,-11.94 0.04,-0.81 0.12,-3.62 0.29,-4.48 -0.16,-0.48 -0.2,-1.96 -0.26,-2.56 -0.07,-0.81 -0.25,-1.63 -0.37,-2.48l-1.04 -3.4c-0.17,-0.49 0.02,-0.15 -0.22,-0.6 -0.9,-1.71 -5.94,-3.08 -7.71,-3.56 -4.33,-1.17 -8.25,-1.45 -12.35,-1.47l0.02 -0.04z"/>
    <path class="fil1" d="M300.57 58.83c-0.39,0.31 -0.17,0.25 -0.77,0.27 -0.21,0.26 -1.3,0.91 -1.67,1.14 -0.64,0.39 -1.04,0.65 -1.62,1.09 -0.42,0.32 -2.95,2.54 -3.04,2.59 -0.43,0.61 -1.19,1.58 -1.79,1.89 -0.21,0.58 -2.27,3.04 -2.85,4.03l-1.36 2.06c-0.11,0.56 -0.33,0.83 -0.6,1.36l-0.98 2.04 -0.9 2.07 -0.82 2.1c-0.22,0.63 -0.2,0.83 -0.6,1.36 0,0.04 0.02,0.06 0,0.12l-0.36 1.39c-0.17,0.54 -0.33,1.02 -0.53,1.57 -0.05,0.58 -0.27,1.37 -0.6,1.85 0.01,0.04 0.02,0.06 0.01,0.12 -0.01,0.06 0.01,0.1 0,0.12l-0.87 4.45c-0.23,1.55 -0.36,3.07 -0.53,4.65 0,0.76 0.06,4.49 -0.06,4.82 0.32,0.63 0.31,1.71 0.42,2.42 0.12,0.8 0.38,1.89 0.39,2.61 0.22,0.17 1.39,4.25 1.61,4.86 0.75,2 3.07,2.31 5.44,2.87 1.84,0.23 3.85,0.74 5.91,0.87 1.98,0.12 3.83,0.16 5.74,0.14l2.6 -0.12 0.43 -0.09c0.18,-0.02 0.36,-0.02 0.56,-0.05l2.93 -0.42c0.74,-0.11 1.22,-0.17 1.95,-0.32 0.5,-0.1 1.48,-0.33 1.96,-0.32l11.17 -3.34c0.96,-0.47 1.61,-0.47 2.59,-1.79 0.76,-1.02 1.09,-2.54 1.06,-3.66 -0.39,-0.04 -0.05,-0.05 -0.53,0.05l-1.74 0.54c-2.38,0.77 -4.53,1.62 -7.04,1.93 -2.8,0.34 -7.44,0.56 -10.69,-0.72 2.98,-0.59 5.4,0.22 13.44,-1.77l4.32 -1.25c2.65,-0.75 3.72,-0.91 4.09,-3.18 0.21,-1.31 -0.61,-1.22 -3.34,-2l-2.15 -0.7c-3.03,-1.07 -5.96,-2.25 -8.97,-3.5 -1.46,-0.6 -2.92,-1.26 -4.33,-1.96 -0.6,-0.29 -3.57,-1.6 -3.91,-2.12l2.75 0.42c1.01,0.23 1.9,0.56 2.87,0.9l11.99 4.06c1.33,0.47 4.85,2.41 5.64,2.48 0.87,-0.39 1.34,-2 1.15,-2.95 -0.54,-2.82 -7.6,-12.01 -10.68,-14.75l-2.25 -2.18c-0.01,-0.02 -0.05,-0.06 -0.06,-0.1 6.07,2.43 9.68,7.49 12.87,12.57 0.42,0.68 0.82,1.69 1.42,2.11 0.75,-1.42 1.46,-1.99 1.5,-4.05 0.01,-0.69 -0.18,-0.8 -0.17,-1.31 -0.18,-0.34 -0.21,-0.52 -0.43,-0.87 -0.28,-0.45 -0.23,-0.38 -0.53,-0.93 -0.32,-0.6 -0.77,-1.26 -0.99,-1.89 -1.2,-1.3 -3.46,-6.66 -11.11,-14.1 -3.6,-3.49 -8.09,-6.6 -12.86,-8.6 -1.99,-0.83 -3.6,-1.62 -5.09,-0.87l-0 -0.01z"/>
    <path class="fil1" d="M333.22 91.78l-1.13 1.56c-0.02,0.02 -0.06,0.06 -0.1,0.07 -0.16,0.79 -1.99,4.21 -2.49,5.46 -0.5,1.26 -1.55,5.01 -1.96,5.68 0.04,0.18 0.04,0 0.02,0.38 -0.01,0.15 -0.02,0.25 -0.04,0.38 -0.04,0.23 -0.12,0.55 -0.17,0.8 -0.21,1.72 -0.42,2.44 0.1,3.93 2.2,0.97 4.64,1.94 6.88,2.79 1.14,0.43 2.23,0.9 3.35,1.35 0.56,0.22 1.13,0.43 1.69,0.65 1.45,0.58 0.98,0.15 1.51,0.26 0.39,-0.36 0.26,-0.36 0.75,-0.53l0.63 -0.85c1.77,-2.09 3.35,-5.36 4.32,-7.84 0.98,-2.49 2.21,-6.09 2.38,-8.82 0.02,-0.37 -0.02,-0.75 0.06,-1.17l-0.15 -0.8c-0.74,-1.04 -2.64,-1.48 -3.91,-1.98l-8.92 -3.53c-1.12,-0.21 -1.99,1.19 -2.83,2.2l0.01 0.01z"/>
   </g>
   <g>
    <path class="fil1" d="M190.96 13.79c-0.39,-0.09 -1.68,-0.83 -2.33,-1.09 -3.15,-1.28 -6.34,-1.4 -9.6,-0.43 -13.28,3.95 -15.52,18.25 -7.54,27.83 4.39,5.26 10.81,8.33 20.04,9.66 4.41,0.64 8.49,0.94 12.58,2.26 6.77,2.17 7.33,5.55 8.59,6.44 -0.29,-2.37 -1.2,-3.45 -0.91,-6.39 0.52,-5.14 4.48,-11.19 6.88,-15.29 3.62,-6.18 7.14,-14.63 4.59,-23.49 -1.31,-4.54 -3.12,-6.75 -5.72,-9.13 -2.25,-2.05 -6.41,-4.17 -10.69,-4.16 -3.93,0.01 -8.42,2.27 -10.69,4.16 -2.79,2.31 -4.32,4.68 -5.22,9.62l0 0.01z"/>
    <path class="fil1" d="M250.55 45.92c-0.47,-1.08 -0.31,-2.31 -1.57,-4.38 -0.9,-1.46 -1.6,-2.2 -2.8,-3.17 -1.84,-1.47 -5.49,-3.17 -8.66,-3.1 -6.09,0.12 -11.09,4.8 -12.75,10.8 -1.91,6.95 1.03,13.9 3.99,18.62 1.52,2.43 3.01,4.71 4.32,7.47 2.55,5.42 1.36,6.15 0.97,9.73 0.47,-0.31 0.32,-0.27 0.74,-0.87 0.25,-0.36 0.43,-0.55 0.66,-0.86 5.64,-7.45 21.93,-2.25 31.01,-13.38 4.22,-5.18 4.88,-12.5 0.98,-17.6 -2.49,-3.26 -7.92,-5.77 -12.64,-4.87 -2.39,0.45 -3.25,1.34 -4.21,1.61l-0.04 0z"/>
    <path class="fil1" d="M216.37 99.69c-0.1,-1.44 -0.61,-2.17 -0.36,-3.93 0.43,-2.95 2.93,-6.58 4.44,-8.91 10.17,-15.74 -3.36,-27.19 -12.75,-19.95 -1.8,1.39 -2.6,2.8 -3.29,5.56 -1.85,-0.58 -3.45,-2.17 -7.33,-1.06 -8.73,2.5 -8.96,11.68 -4.68,16.7 2.64,3.09 6.36,5.08 11.9,5.99 2.53,0.42 5.01,0.8 7.25,1.63 2.63,0.97 3.4,2.01 4.8,3.98l0 -0.01z"/>
   </g>
   <path class="fil0" d="M278.68 107.06c-15,4.05 -28.4,11.96 -39.06,22.63 -0.68,0.68 -1.33,1.35 -1.98,2.05 -3.64,-4.79 -7.65,-9.36 -11.95,-13.67l-0.05 -0.05c0.38,-0.39 0.76,-0.77 1.14,-1.17 13.88,-13.88 31.59,-23.91 51.41,-28.38l-0.26 1.34c-0.01,0.05 -0.02,0.1 -0.02,0.15 -0.23,1.58 -0.37,3.18 -0.55,4.76 -0.01,0.14 -0.02,0.25 -0.02,0.37 0,1.33 0.1,2.88 0,4.2 -0.14,0.68 -0.06,1.34 0.23,1.99 0.1,0.45 0.1,1.09 0.16,1.56 0.1,0.63 0.34,1.53 0.34,2.12 0,0.63 0.16,1.2 0.47,1.72 0.05,0.12 0.1,0.25 0.15,0.38l-0 0.01zm111.86 27.44c10.59,16.47 16.74,36.08 16.74,57.12 0,29.19 -11.83,55.63 -30.97,74.77 -19.13,19.13 -45.56,30.97 -74.77,30.97 -20.25,0 -39.16,-5.69 -55.23,-15.56 3.12,-5.24 5.85,-10.68 8.22,-16.27 13.58,8.65 29.71,13.67 47.01,13.67 24.19,0 46.08,-9.81 61.92,-25.65 15.84,-15.84 25.65,-37.75 25.65,-61.92 0,-16.23 -4.42,-31.45 -12.12,-44.48l1.68 -0.92c0.05,-0.02 0.1,-0.05 0.15,-0.09 0.61,-0.38 1.2,-0.87 1.8,-1.25 0.49,-0.2 0.91,-0.52 1.26,-0.94 0.39,-0.48 1.15,-0.99 1.63,-1.45 0.37,-0.34 0.92,-1.01 1.28,-1.25 0.59,-0.31 1.04,-0.76 1.36,-1.36 0.23,-0.32 0.61,-0.68 0.87,-0.96 0.07,-0.07 0.14,-0.15 0.21,-0.23l3.12 -3.95c0.06,-0.07 0.11,-0.15 0.16,-0.22l0.04 -0.03zm-168.57 20.53c-5.13,11.13 -7.99,23.52 -7.99,36.59 0,20.92 7.34,40.14 19.59,55.2 -2.07,6.34 -4.72,12.49 -7.95,18.37 -18.44,-19.03 -29.8,-44.97 -29.8,-73.57 0,-19.07 5.04,-36.95 13.88,-52.4 4.6,4.92 8.7,10.21 12.27,15.81z"/>
  </g>
 </g>
</svg>
