<?xml version="1.0" encoding="UTF-8"?>
<!DOCTYPE svg PUBLIC "-//W3C//DTD SVG 1.1//EN" "http://www.w3.org/Graphics/SVG/1.1/DTD/svg11.dtd">
<!-- Creator: CorelDRAW 2021 (64-Bit) -->
<svg xmlns="http://www.w3.org/2000/svg" xml:space="preserve" width="50.0016mm" height="46.5617mm" version="1.1" style="shape-rendering:geometricPrecision; text-rendering:geometricPrecision; image-rendering:optimizeQuality; fill-rule:evenodd; clip-rule:evenodd"
viewBox="0 0 592.5 551.74"
 xmlns:xlink="http://www.w3.org/1999/xlink"
 xmlns:xodm="http://www.corel.com/coreldraw/odm/2003">
 <defs>
  <style type="text/css">
   <![CDATA[
    .fil1 {fill:#FEFEFE}
    .fil0 {fill:#FEFEFE;fill-rule:nonzero}
   ]]>
  </style>
 </defs>
 <g id="Layer_x0020_1">
  <metadata id="CorelCorpID_0Corel-Layer"/>
  <g id="_1655034384048">
   <path class="fil0" d="M189.92 120.29c52.43,0 99.9,21.26 134.27,55.61 34.37,34.37 55.61,81.84 55.61,134.27 0,50.17 -19.46,95.8 -51.26,129.75 -0.23,-0.71 -0.45,-1.43 -0.55,-2.05 -0.2,-1.05 -0.59,-1.91 -1.23,-2.75 -0.8,-1.25 -1.48,-3.07 -2.18,-4.43 -0.95,-1.84 -2.09,-3.55 -3.12,-5.36 -0.18,-0.3 -0.36,-0.55 -0.57,-0.84l-5.27 -6.55c-0.04,-0.04 -0.05,-0.07 -0.09,-0.11 -0.37,-0.59 -0.8,-1.04 -1.32,-1.5 24.42,-28.56 39.17,-65.64 39.17,-106.17 0,-45.13 -18.3,-86 -47.88,-115.58 -29.58,-29.58 -70.45,-47.88 -115.58,-47.88 -45.13,0 -86.02,18.3 -115.58,47.88 -29.58,29.58 -47.88,70.45 -47.88,115.58 0,40.53 14.75,77.62 39.19,106.19 -0.36,0.32 -0.7,0.66 -1.04,1.04 -0.02,0.02 -0.04,0.05 -0.07,0.07 -1.12,0.68 -1.96,1.64 -2.48,2.87 -0.54,0.89 -1.34,1.89 -1.95,2.71 -1.05,1.43 -2.04,2.8 -2.95,4.32 -1.55,2.59 -2.78,5.48 -4.28,8.12 -0.41,0.61 -0.68,1.25 -0.87,2 -0.14,0.59 -0.41,1.62 -0.71,2.45 -31.81,-33.96 -51.29,-79.59 -51.29,-129.79 0,-52.43 21.26,-99.9 55.61,-134.27 34.37,-34.37 81.84,-55.61 134.27,-55.61l0.04 0.02z"/>
   <g>
    <path class="fil1" d="M261.15 427.32l-10.19 4.62c-0.87,0.68 -1.87,1.05 -2.77,1.61 -1.21,0.75 -1.41,0.89 -2.71,1.52 -1.87,0.91 -3.5,2.02 -5.32,3.05 -4.07,2.53 -7.64,4.86 -11.14,7.53 -1.73,1.34 -3.55,2.68 -5.23,4.05 -1.86,1.52 -3.55,2.89 -5,4.25l-0.66 0.87c-3,4.5 -2.09,6.96 -1.52,12.46 1.59,-0.36 7.93,-5.5 9.3,-6.53 9.25,-6.95 23.23,-13.18 35.03,-13.18 -1.02,0.87 -11.41,4.62 -13.87,5.84 -4.68,2.28 -8.59,4.55 -12.69,7.25 -4.02,2.64 -14.3,9.37 -16.8,12.76 -1.3,1.79 -1.91,5.94 -0.21,7.71 1.57,0.46 11.55,-0.61 14.6,-0.5 6.02,0.2 32.06,1.41 37.03,2.14 1.34,0.2 5.46,0.7 6.43,1.48 -2.84,2.02 -40.1,1.79 -43.95,1.59 -2.8,-0.16 -12.44,-1.43 -14.23,-0.64 -0.62,0.66 -0.41,0.27 -0.73,1.45 -1.48,5.44 1.09,7.09 6.12,10.87 1.91,1.43 3.46,2.78 5.37,4.23 10.85,8.19 12.3,8.8 24.39,14.76 2.02,1 5,2.2 6.62,3.25 -10.07,-0.02 -23.57,-6.41 -31.1,-12.57l-6.62 -5.48c-0.98,-0.86 -3.45,-3.11 -4.64,-3.45 -1.52,4.16 -1.75,7.84 0.29,11.73 2.3,4.43 22.32,18.57 22.87,19.51 1.23,0.48 9.89,5.89 10.75,6.64 0.39,0.14 10.84,5.77 10.98,5.89 1.8,0.39 3.53,1.36 5.34,2.05 1.62,0.64 3.8,1.23 5.02,2.27 1.52,-0.09 8.16,2.32 10.57,2.86 3.77,0.82 7.8,1.61 11.82,2.02 0.36,0.02 0.68,0 1.05,0.11 1.3,0.37 0.16,-0.02 0.77,0.37 6.21,-1.57 4.2,1.87 9.41,-4.21l6.11 -7.41c0.75,-1.02 3.09,-4.87 3.66,-5.25 0.62,-1.91 1.71,-3.46 2.68,-5.5 0.86,-1.84 1.61,-4.18 2.78,-5.57 0.05,-1.12 1.12,-3.75 1.61,-4.94l3.37 -11.44c-0.14,-1.36 1.59,-11.28 1.89,-13.87 0.57,-4.87 0.93,-10.27 0.91,-15.28 -0.04,-10.64 -0.84,-19.5 -3.5,-29.05 -0.62,-1.8 -2.91,-8.07 -3.28,-10.12 -0.77,-0.91 -2.16,-4.14 -2.82,-5.43 -0.89,-1.71 -1.98,-3.36 -2.98,-5.12l-5.27 -6.55c-0.8,-0.93 -0.07,-0.34 -1.02,-1.14 -3.46,-2.96 -15.76,-1.57 -20.07,-1.07 -10.55,1.23 -19.41,4.07 -28.42,7.61l-0 -0.05z"/>
    <path class="fil1" d="M69.36 421.61c-0.59,1.02 -0.16,0.7 -1.46,1.25 -0.25,0.73 -2.05,3.12 -2.68,3.96 -1.05,1.41 -1.71,2.36 -2.61,3.82 -0.64,1.07 -4.25,8.18 -4.43,8.37 -0.43,1.71 -1.23,4.52 -2.27,5.73 0.05,1.45 -2.32,8.68 -2.73,11.35l-1.18 5.73c0.25,1.34 0,2.14 -0.11,3.52l-0.36 5.34 -0.16 5.34 0.04 5.34c0.07,1.55 0.29,2.02 -0.12,3.52 0.05,0.09 0.09,0.12 0.11,0.25l0.43 3.34c0.09,1.36 0.16,2.53 0.21,3.91 0.39,1.3 0.62,3.27 0.3,4.59 0.05,0.09 0.11,0.12 0.12,0.27 0.02,0.14 0.09,0.2 0.12,0.27l2 10.55c0.86,3.59 1.91,7.05 2.91,10.68 0.66,1.68 4.07,9.84 4.09,10.64 1.27,1.11 2.16,3.48 3.03,4.96 0.96,1.66 2.5,3.8 3.14,5.41 0.64,0.18 6.77,8.12 7.8,9.27 3.39,3.75 8.77,2.39 14.46,1.54 4.25,-1.09 9.12,-1.77 13.76,-3.28 4.46,-1.46 8.57,-3.03 12.73,-4.73l5.61 -2.55 0.86 -0.55c0.39,-0.21 0.77,-0.37 1.18,-0.61l6.09 -3.5c1.52,-0.89 2.53,-1.45 4,-2.41 1,-0.66 2.96,-2.04 4.05,-2.43l21.62 -17.14c1.7,-1.86 3.12,-2.45 4.12,-6.21 0.77,-2.91 0.16,-6.53 -0.87,-8.96 -0.89,0.25 -0.14,-0.05 -1.11,0.57l-3.36 2.71c-4.55,3.78 -8.52,7.52 -13.78,10.41 -5.84,3.21 -15.85,7.78 -24.14,7.8 6.03,-3.91 12.07,-4.25 27.99,-15.69l8.41 -6.55c5.16,-3.96 7.37,-5.27 6.19,-10.59 -0.68,-3.07 -2.41,-2.14 -9.11,-1.48l-5.34 0.36c-7.61,0.32 -15.09,0.3 -22.8,0.2 -3.73,-0.05 -7.52,-0.21 -11.25,-0.5 -1.59,-0.12 -9.25,-0.37 -10.48,-1.25l6.41 -1.48c2.41,-0.37 4.68,-0.43 7.11,-0.55l29.92 -1.59c3.32,-0.14 12.78,1.04 14.6,0.5 1.57,-1.62 1.18,-5.55 -0.05,-7.5 -3.68,-5.71 -27.24,-19.76 -36.42,-23.05l-6.86 -2.84c-0.05,-0.04 -0.16,-0.11 -0.23,-0.16 15.5,0 27.87,7.96 39.35,16.34 1.52,1.11 3.28,3 4.96,3.37 0.39,-3.78 1.46,-5.64 -0.27,-10.21 -0.57,-1.54 -1.09,-1.61 -1.52,-2.73 -0.71,-0.59 -0.91,-0.96 -1.7,-1.54 -1.02,-0.73 -0.86,-0.62 -1.98,-1.57 -1.23,-1.05 -2.78,-2.11 -3.84,-3.3 -3.8,-1.82 -13.48,-11.62 -36.81,-21.25 -10.96,-4.52 -23.57,-7.41 -35.83,-7.62 -5.11,-0.09 -9.34,-0.41 -11.98,2.55l0.07 0.09z"/>
    <path class="fil1" d="M170.05 465.37l-1.11 4.41c-0.04,0.07 -0.09,0.18 -0.14,0.25 0.34,1.86 -0.68,10.98 -0.68,14.21 0,3.23 1,12.35 0.68,14.21 0.25,0.39 0.09,-0.04 0.37,0.8 0.11,0.32 0.18,0.55 0.25,0.87 0.12,0.54 0.23,1.32 0.34,1.91 1.05,3.95 1.23,5.73 3.66,8.55 5.66,0.2 11.91,0.18 17.57,0.09 2.87,-0.05 5.69,0.02 8.55,0.02 1.43,0 2.86,-0.04 4.28,-0.04 3.7,-0.02 2.28,-0.55 3.55,-0.77 0.55,-1.14 0.25,-1 1.18,-1.82l0.62 -2.41c2.07,-6.12 2.64,-14.75 2.62,-21.03 -0.04,-6.36 -0.48,-15.32 -2.52,-21.5 -0.27,-0.84 -0.7,-1.62 -0.89,-2.61l-1 -1.62c-2.55,-1.64 -7.11,-0.93 -10.32,-0.91l-22.71 0.05c-2.64,0.52 -3.34,4.36 -4.28,7.32l-0.04 0z"/>
   </g>
   <g>
    <path class="fil1" d="M545.44 132.57l-6.87 0.32c-0.66,0.2 -1.3,0.18 -1.95,0.29 -0.87,0.14 -1.02,0.18 -1.89,0.25 -1.29,0.09 -2.46,0.36 -3.73,0.54 -2.89,0.52 -5.46,1.02 -8.07,1.77 -1.3,0.37 -2.64,0.71 -3.91,1.12 -1.41,0.45 -2.68,0.84 -3.82,1.29l-0.57 0.34c-2.75,1.89 -2.78,3.5 -3.71,6.77 1,0.16 5.78,-1.34 6.8,-1.61 6.86,-1.86 16.26,-2.23 22.99,0.46 -0.79,0.27 -7.57,0.04 -9.25,0.16 -3.2,0.23 -5.94,0.64 -8.89,1.25 -2.89,0.59 -10.3,2.09 -12.5,3.46 -1.16,0.71 -2.45,2.96 -1.87,4.36 0.79,0.62 6.73,2.28 8.44,3.03 3.39,1.48 17.98,8.11 20.64,9.66 0.71,0.43 2.95,1.64 3.32,2.3 -2.09,0.52 -23.3,-8.12 -25.44,-9.11 -1.57,-0.73 -6.78,-3.64 -7.96,-3.61 -0.5,0.23 -0.3,0.05 -0.75,0.66 -2.09,2.77 -1,4.28 1.02,7.61 0.77,1.25 1.34,2.37 2.11,3.64 4.34,7.14 5.02,7.84 10.55,13.98 0.93,1.02 2.36,2.39 3.03,3.36 -5.75,-2.3 -12,-9.03 -14.89,-14.26l-2.53 -4.64c-0.37,-0.71 -1.25,-2.55 -1.86,-3.03 -1.8,2.04 -2.78,4.07 -2.52,6.77 0.3,3.05 8.5,15.69 8.61,16.35 0.59,0.55 4.3,5.62 4.62,6.25 0.2,0.16 4.87,5.77 4.93,5.86 0.95,0.64 1.71,1.57 2.57,2.39 0.79,0.73 1.89,1.57 2.36,2.45 0.89,0.3 4.12,3.2 5.37,4.03 1.96,1.32 4.09,2.7 6.28,3.84 0.2,0.09 0.39,0.16 0.57,0.3 0.66,0.52 0.11,0.04 0.36,0.39 3.91,0.52 1.96,2.02 6.34,-0.25l5.18 -2.84c0.66,-0.41 2.87,-2.09 3.28,-2.16 0.79,-0.95 1.77,-1.59 2.78,-2.53 0.91,-0.86 1.87,-2.02 2.86,-2.55 0.29,-0.62 1.5,-1.89 2.04,-2.46l4.53 -5.75c0.23,-0.8 3.48,-6.09 4.23,-7.5 1.43,-2.64 2.87,-5.64 4,-8.52 2.41,-6.07 3.96,-11.32 4.62,-17.37 0.05,-1.18 0.18,-5.27 0.43,-6.52 -0.23,-0.7 -0.29,-2.86 -0.37,-3.73 -0.11,-1.18 -0.36,-2.37 -0.54,-3.61l-1.52 -4.94c-0.25,-0.71 0.04,-0.21 -0.32,-0.87 -1.3,-2.48 -8.64,-4.48 -11.21,-5.18 -6.3,-1.7 -12,-2.11 -17.96,-2.14l0.03 -0.06z"/>
    <path class="fil1" d="M437.27 85.59c-0.57,0.45 -0.25,0.36 -1.12,0.39 -0.3,0.37 -1.89,1.32 -2.43,1.66 -0.93,0.57 -1.52,0.95 -2.36,1.59 -0.61,0.46 -4.28,3.7 -4.43,3.77 -0.62,0.89 -1.73,2.3 -2.61,2.75 -0.3,0.84 -3.3,4.43 -4.14,5.86l-1.98 3c-0.16,0.82 -0.48,1.21 -0.87,1.98l-1.43 2.96 -1.3 3.02 -1.2 3.05c-0.32,0.91 -0.29,1.21 -0.87,1.98 0,0.05 0.04,0.09 0,0.18l-0.52 2.02c-0.25,0.79 -0.48,1.48 -0.77,2.28 -0.07,0.84 -0.39,2 -0.87,2.7 0.02,0.05 0.04,0.09 0.02,0.18 -0.02,0.09 0.02,0.14 0,0.18l-1.27 6.48c-0.34,2.25 -0.52,4.46 -0.77,6.77 0,1.11 0.09,6.53 -0.09,7.02 0.46,0.91 0.45,2.48 0.61,3.52 0.18,1.16 0.55,2.75 0.57,3.8 0.32,0.25 2.02,6.18 2.34,7.07 1.09,2.91 4.46,3.36 7.91,4.18 2.68,0.34 5.61,1.07 8.61,1.27 2.87,0.18 5.57,0.23 8.36,0.2l3.78 -0.18 0.62 -0.12c0.27,-0.04 0.52,-0.04 0.82,-0.07l4.27 -0.61c1.07,-0.16 1.77,-0.25 2.84,-0.46 0.73,-0.14 2.16,-0.48 2.86,-0.46l16.25 -4.86c1.39,-0.68 2.34,-0.68 3.77,-2.61 1.11,-1.48 1.59,-3.7 1.54,-5.32 -0.57,-0.05 -0.07,-0.07 -0.77,0.07l-2.53 0.79c-3.46,1.12 -6.59,2.36 -10.25,2.8 -4.07,0.5 -10.82,0.82 -15.55,-1.05 4.34,-0.86 7.86,0.32 19.55,-2.57l6.28 -1.82c3.86,-1.09 5.41,-1.32 5.94,-4.62 0.3,-1.91 -0.89,-1.77 -4.86,-2.91l-3.12 -1.02c-4.41,-1.55 -8.68,-3.27 -13.05,-5.09 -2.12,-0.87 -4.25,-1.84 -6.3,-2.86 -0.87,-0.43 -5.19,-2.32 -5.69,-3.09l4 0.61c1.46,0.34 2.77,0.82 4.18,1.3l17.44 5.91c1.93,0.68 7.05,3.5 8.21,3.61 1.27,-0.57 1.95,-2.91 1.68,-4.28 -0.79,-4.11 -11.05,-17.48 -15.53,-21.46l-3.27 -3.18c-0.02,-0.04 -0.07,-0.09 -0.09,-0.14 8.84,3.53 14.09,10.89 18.73,18.28 0.61,0.98 1.2,2.46 2.07,3.07 1.09,-2.07 2.12,-2.89 2.18,-5.89 0.02,-1 -0.27,-1.16 -0.25,-1.91 -0.27,-0.5 -0.3,-0.75 -0.62,-1.27 -0.41,-0.66 -0.34,-0.55 -0.77,-1.36 -0.46,-0.87 -1.12,-1.84 -1.45,-2.75 -1.75,-1.89 -5.03,-9.69 -16.16,-20.51 -5.23,-5.07 -11.77,-9.61 -18.71,-12.51 -2.89,-1.21 -5.23,-2.36 -7.41,-1.27l-0 -0.01z"/>
    <path class="fil1" d="M484.78 133.52l-1.64 2.27c-0.04,0.04 -0.09,0.09 -0.14,0.11 -0.23,1.14 -2.89,6.12 -3.62,7.94 -0.73,1.84 -2.25,7.28 -2.86,8.27 0.05,0.27 0.05,0 0.04,0.55 -0.02,0.21 -0.04,0.36 -0.05,0.55 -0.05,0.34 -0.18,0.8 -0.25,1.16 -0.3,2.5 -0.61,3.55 0.14,5.71 3.2,1.41 6.75,2.82 10.02,4.05 1.66,0.62 3.25,1.3 4.87,1.96 0.82,0.32 1.64,0.62 2.46,0.95 2.11,0.84 1.43,0.21 2.2,0.37 0.57,-0.52 0.37,-0.52 1.09,-0.77l0.91 -1.23c2.57,-3.03 4.87,-7.8 6.28,-11.41 1.43,-3.62 3.21,-8.86 3.46,-12.84 0.04,-0.54 -0.04,-1.09 0.09,-1.7l-0.21 -1.16c-1.07,-1.52 -3.84,-2.16 -5.69,-2.87l-12.98 -5.14c-1.62,-0.3 -2.89,1.73 -4.12,3.2l0.02 0.02z"/>
   </g>
   <g>
    <path class="fil1" d="M277.81 20.07c-0.57,-0.12 -2.45,-1.21 -3.39,-1.59 -4.59,-1.86 -9.23,-2.04 -13.96,-0.62 -19.32,5.75 -22.58,26.55 -10.96,40.49 6.39,7.66 15.73,12.12 29.15,14.05 6.41,0.93 12.35,1.37 18.3,3.28 9.86,3.16 10.66,8.07 12.5,9.37 -0.43,-3.45 -1.75,-5.02 -1.32,-9.3 0.75,-7.48 6.52,-16.28 10.02,-22.24 5.27,-9 10.39,-21.28 6.68,-34.17 -1.91,-6.6 -4.53,-9.82 -8.32,-13.28 -3.27,-2.98 -9.32,-6.07 -15.55,-6.05 -5.71,0.02 -12.25,3.3 -15.55,6.05 -4.05,3.36 -6.28,6.8 -7.59,14l0 0.02z"/>
    <path class="fil1" d="M364.5 66.8c-0.68,-1.57 -0.45,-3.36 -2.28,-6.37 -1.3,-2.12 -2.32,-3.2 -4.07,-4.61 -2.68,-2.14 -7.98,-4.61 -12.6,-4.52 -8.86,0.18 -16.14,6.98 -18.55,15.71 -2.78,10.1 1.5,20.23 5.8,27.08 2.21,3.53 4.37,6.86 6.28,10.87 3.71,7.89 1.98,8.94 1.41,14.16 0.68,-0.45 0.46,-0.39 1.07,-1.27 0.36,-0.52 0.62,-0.8 0.96,-1.25 8.21,-10.84 31.9,-3.27 45.11,-19.46 6.14,-7.53 7.11,-18.19 1.43,-25.6 -3.62,-4.75 -11.52,-8.39 -18.39,-7.09 -3.48,0.66 -4.73,1.95 -6.12,2.34l-0.05 0z"/>
    <path class="fil1" d="M314.78 145.04c-0.14,-2.09 -0.89,-3.16 -0.52,-5.71 0.62,-4.28 4.27,-9.57 6.46,-12.96 14.8,-22.91 -4.89,-39.56 -18.55,-29.03 -2.62,2.02 -3.78,4.07 -4.78,8.09 -2.7,-0.84 -5.02,-3.16 -10.66,-1.54 -12.69,3.64 -13.03,17 -6.8,24.3 3.84,4.5 9.25,7.39 17.32,8.71 3.68,0.61 7.28,1.16 10.55,2.37 3.82,1.41 4.94,2.93 6.98,5.78l0 -0.02z"/>
   </g>
   <path class="fil0" d="M405.42 155.75c-21.82,5.89 -41.31,17.41 -56.83,32.92 -0.98,0.98 -1.93,1.96 -2.87,2.98 -5.3,-6.96 -11.12,-13.62 -17.39,-19.89l-0.07 -0.07c0.55,-0.57 1.11,-1.12 1.66,-1.7 20.19,-20.19 45.95,-34.78 74.79,-41.29l-0.37 1.95c-0.02,0.07 -0.04,0.14 -0.04,0.21 -0.34,2.3 -0.54,4.62 -0.8,6.93 -0.02,0.2 -0.04,0.36 -0.04,0.54 0,1.93 0.14,4.2 0,6.11 -0.2,0.98 -0.09,1.95 0.34,2.89 0.14,0.66 0.14,1.59 0.23,2.27 0.14,0.91 0.5,2.23 0.5,3.09 0,0.91 0.23,1.75 0.68,2.5 0.07,0.18 0.14,0.36 0.21,0.55l-0 0.02zm162.73 39.92c15.41,23.96 24.35,52.49 24.35,83.1 0,42.47 -17.21,80.93 -45.06,108.78 -27.83,27.83 -66.29,45.06 -108.78,45.06 -29.46,0 -56.97,-8.28 -80.36,-22.64 4.53,-7.62 8.52,-15.53 11.96,-23.67 19.76,12.59 43.22,19.89 68.39,19.89 35.19,0 67.04,-14.26 90.09,-37.31 23.05,-23.05 37.31,-54.91 37.31,-90.09 0,-23.62 -6.43,-45.76 -17.64,-64.72l2.45 -1.34c0.07,-0.04 0.14,-0.07 0.21,-0.12 0.89,-0.55 1.75,-1.27 2.62,-1.82 0.71,-0.29 1.32,-0.75 1.84,-1.37 0.57,-0.7 1.68,-1.45 2.37,-2.11 0.54,-0.5 1.34,-1.46 1.86,-1.82 0.86,-0.45 1.52,-1.11 1.98,-1.98 0.34,-0.46 0.89,-0.98 1.27,-1.39 0.11,-0.11 0.2,-0.21 0.3,-0.34l4.53 -5.75c0.09,-0.11 0.16,-0.21 0.23,-0.32l0.05 -0.04zm-245.24 29.87c-7.46,16.19 -11.62,34.22 -11.62,53.24 0,30.44 10.68,58.4 28.49,80.3 -3.02,9.23 -6.87,18.17 -11.57,26.73 -26.83,-27.69 -43.35,-65.43 -43.35,-107.03 0,-27.74 7.34,-53.75 20.19,-76.23 6.7,7.16 12.66,14.85 17.85,22.99z"/>
  </g>
 </g>
</svg>
