<?xml version="1.0" encoding="UTF-8"?>
<!DOCTYPE svg PUBLIC "-//W3C//DTD SVG 1.1//EN" "http://www.w3.org/Graphics/SVG/1.1/DTD/svg11.dtd">
<!-- Creator: CorelDRAW 2021 (64-Bit) -->
<svg xmlns="http://www.w3.org/2000/svg" xml:space="preserve" width="27.135mm" height="27.135mm" version="1.1" style="shape-rendering:geometricPrecision; text-rendering:geometricPrecision; image-rendering:optimizeQuality; fill-rule:evenodd; clip-rule:evenodd"
viewBox="0 0 74.56 74.56"
 xmlns:xlink="http://www.w3.org/1999/xlink"
 xmlns:xodm="http://www.corel.com/coreldraw/odm/2003">
 <defs>
  <style type="text/css">
   <![CDATA[
    .fil0 {fill:black;fill-rule:nonzero}
   ]]>
  </style>
 </defs>
 <g id="Layer_x0020_1">
  <metadata id="CorelCorpID_0Corel-Layer"/>
  <path class="fil0" d="M37.28 15.11c-12.1,0 -21.94,9.84 -21.95,21.94 0,4.14 1.17,8.19 3.36,11.67l0.52 0.83 -2.21 8.09 8.31 -2.18 0.8 0.48c3.36,2 7.22,3.06 11.17,3.06l0.02 0c12.08,0 22.19,-9.84 22.19,-21.94 0,-5.86 -2.53,-11.37 -6.67,-15.51 -4.16,-4.16 -9.65,-6.44 -15.51,-6.44zm12.9 31.36c-0.55,1.55 -3.18,2.95 -4.44,3.13 -2.1,0.32 -3.73,0.15 -7.91,-1.65 -6.61,-2.86 -10.93,-9.52 -11.27,-9.95 -0.33,-0.43 -2.7,-3.58 -2.7,-6.82 0,-3.25 1.7,-4.84 2.31,-5.51 0.6,-0.67 1.31,-0.83 1.76,-0.83 0.43,0 0.88,0 1.26,0.02 0.4,0.02 0.95,-0.15 1.48,1.13 0.55,1.31 1.86,4.56 2.03,4.89 0.17,0.33 0.28,0.72 0.05,1.15 -1.26,2.53 -2.61,2.43 -1.93,3.6 2.55,4.38 5.09,5.89 8.97,7.84 0.67,0.33 1.05,0.28 1.43,-0.17 0.38,-0.43 1.65,-1.93 2.08,-2.58 0.43,-0.67 0.88,-0.55 1.48,-0.33 0.6,0.22 3.84,1.81 4.51,2.15 0.67,0.33 1.1,0.5 1.26,0.77 0.15,0.32 0.15,1.65 -0.4,3.18l0 0zm16.39 -46.47l-58.59 0c-4.41,0 -7.99,3.58 -7.99,7.99l0 58.59c0,4.41 3.58,7.99 7.99,7.99l58.59 0c4.41,0 7.99,-3.58 7.99,-7.99l0 -58.59c0,-4.41 -3.58,-7.99 -7.99,-7.99zm-29.31 63.45c-4.43,0 -8.77,-1.12 -12.62,-3.21l-14 3.68 3.74 -13.68c-2.31,-3.99 -3.53,-8.54 -3.53,-13.2 0.02,-14.55 11.85,-26.38 26.4,-26.38 7.06,0 13.68,2.75 18.67,7.74 4.98,4.99 7.97,11.62 7.97,18.67 0,14.55 -12.1,26.38 -26.65,26.38l0 0z"/>
 </g>
</svg>
